<?xml version="1.0" standalone="no"?>
<!DOCTYPE svg PUBLIC "-//W3C//DTD SVG 20010904//EN"
 "http://www.w3.org/TR/2001/REC-SVG-20010904/DTD/svg10.dtd">
<svg version="1.0" xmlns="http://www.w3.org/2000/svg"
 width="250.000000pt" height="250.000000pt" viewBox="0 0 250.000000 250.000000"
 preserveAspectRatio="xMidYMid meet">

<g transform="translate(0.000000,250.000000) scale(0.100000,-0.100000)"
fill="#000000" stroke="none">
<path d="M1249 2137 c-2 -3 -40 -7 -84 -10 -139 -10 -291 -67 -437 -164 -76
-51 -198 -176 -198 -203 0 -6 -5 -10 -11 -10 -5 0 -7 -4 -4 -10 3 -5 1 -10 -4
-10 -17 0 -89 -152 -110 -232 -33 -121 -42 -216 -31 -330 6 -57 13 -115 18
-130 l7 -27 121 72 c66 40 134 82 150 95 l29 22 -46 -19 c-26 -11 -64 -30 -85
-43 -58 -36 -72 -42 -44 -19 14 11 51 34 83 51 31 17 57 34 57 38 0 4 16 8 35
9 19 2 53 13 76 25 38 19 40 23 24 34 -20 15 -35 10 -35 -11 0 -7 -7 -15 -15
-18 -11 -5 -14 2 -13 31 1 59 -1 64 -24 62 -13 -1 -38 -2 -57 -1 -28 1 -33 4
-28 21 4 17 -3 22 -46 35 -28 8 -61 15 -74 15 -14 0 -23 6 -23 15 0 8 -16 33
-36 55 -20 22 -33 40 -29 40 4 0 32 -14 61 -31 30 -17 63 -29 73 -27 19 3 19
4 1 40 -11 22 -13 35 -6 32 7 -3 18 -20 25 -39 11 -32 46 -63 58 -52 2 3 -3
20 -12 39 -11 22 -11 27 -2 16 12 -16 15 -8 26 67 10 66 17 85 29 85 9 0 -6
21 -39 51 l-54 50 64 -51 c55 -44 66 -50 76 -37 6 8 19 16 30 18 17 4 14 10
-25 54 -38 43 -39 45 -7 16 20 -19 37 -32 37 -29 0 14 -37 77 -67 114 -34 42
-42 61 -21 48 8 -5 9 -1 4 12 -10 27 3 11 68 -83 32 -46 62 -85 67 -88 5 -4 9
-11 9 -16 0 -6 -5 -7 -12 -3 -6 4 -8 3 -4 -4 3 -6 16 -9 28 -7 11 3 18 2 15
-2 -4 -3 -2 -13 3 -23 8 -15 26 -17 137 -17 136 0 166 8 183 51 9 21 9 21 9
-1 1 -15 6 -21 15 -17 11 4 13 0 9 -18 -4 -18 -3 -20 6 -8 6 8 11 29 12 45 1
17 3 22 6 13 5 -20 9 -21 38 -7 18 9 18 9 -4 5 -21 -4 -23 -2 -17 27 3 18 8
93 11 167 7 174 14 228 26 209 5 -8 9 -27 10 -44 2 -24 4 -21 9 15 5 25 6 -37
3 -137 -4 -133 -3 -183 6 -183 6 0 11 15 12 33 0 26 2 28 8 12 6 -15 11 1 19
55 l10 75 -3 -100 c-2 -55 -4 -101 -5 -102 0 -1 -15 -7 -32 -13 -32 -9 -32
-10 7 -4 52 8 58 12 52 41 -5 27 17 43 35 25 9 -9 7 -16 -5 -30 -18 -20 -24
-77 -7 -67 6 3 10 -1 10 -10 0 -9 4 -14 9 -11 5 4 11 0 13 -6 4 -10 38 -13
126 -14 103 -1 122 1 127 15 6 15 8 15 19 -1 9 -12 26 -16 67 -15 l54 1 0 -65
c0 -41 5 -67 13 -72 7 -5 11 -11 8 -15 -2 -4 6 -7 19 -7 13 0 21 3 19 7 -3 4
4 12 15 17 25 14 34 14 25 0 -4 -8 0 -8 15 0 25 14 28 22 4 15 -15 -5 -15 -3
1 10 22 18 41 21 31 6 -4 -6 1 -7 12 -3 33 11 1 -14 -57 -46 -68 -38 -58 -41
13 -4 29 15 56 26 60 25 5 -1 5 3 1 9 -5 9 -2 10 10 6 11 -5 15 -3 10 5 -5 8
-2 9 10 5 9 -4 15 -3 12 2 -3 5 1 12 10 15 8 3 12 2 9 -4 -3 -6 -2 -10 4 -10
25 0 19 27 -26 111 -124 236 -329 389 -613 457 -51 12 -164 25 -171 19z m118
-54 c-3 -10 -5 -4 -5 12 0 17 2 24 5 18 2 -7 2 -21 0 -30z m-10 -85 c-2 -13
-4 -3 -4 22 0 25 2 35 4 23 2 -13 2 -33 0 -45z m-405 -30 c-6 -6 -15 -8 -19
-4 -4 4 -1 11 7 16 8 5 17 7 19 4 3 -2 -1 -10 -7 -16z m372 -112 c-3 -9 -10
-13 -15 -10 -5 3 -3 11 4 19 15 16 19 13 11 -9z m528 12 c-14 -14 -44 -20 -36
-7 3 5 9 7 14 4 5 -3 11 -1 15 5 3 5 9 10 13 10 3 0 1 -5 -6 -12z m-1191 -51
l23 -32 -23 20 c-13 11 -27 28 -33 39 -16 29 7 11 33 -27z m1169 20 c0 -2 -8
-11 -18 -20 -15 -14 -19 -15 -19 -2 0 8 4 12 8 9 4 -2 10 0 14 6 6 10 15 14
15 7z m-370 -82 c0 -17 -47 -51 -58 -41 -3 4 -2 10 4 14 6 4 13 15 17 25 8 21
37 23 37 2z m-865 -65 c10 -11 16 -20 13 -20 -3 0 -13 9 -23 20 -10 11 -16 20
-13 20 3 0 13 -9 23 -20z m-56 -72 c2 -14 -24 3 -44 30 l-20 27 32 -25 c18
-14 32 -28 32 -32z m1501 17 c0 -8 -181 -125 -193 -125 -15 0 -7 6 95 71 98
62 98 62 98 54z m5 -35 c-3 -5 0 -10 7 -10 7 0 -1 -10 -19 -21 -23 -14 -37
-18 -49 -11 -14 8 -11 12 17 30 38 23 53 27 44 12z m-175 -44 c0 -3 -4 -8 -10
-11 -5 -3 -10 -1 -10 4 0 6 5 11 10 11 6 0 10 -2 10 -4z m-1335 -66 c3 -5 1
-10 -4 -10 -6 0 -11 5 -11 10 0 6 2 10 4 10 3 0 8 -4 11 -10z m-25 -265 c0 -9
-18 -14 -52 -17 -29 -2 -54 -4 -56 -3 -1 1 14 19 35 40 l37 38 18 -23 c10 -12
18 -28 18 -35z m-23 -51 c-3 -3 -12 -4 -19 -1 -8 3 -5 6 6 6 11 1 17 -2 13 -5z
m3 -77 c0 -2 -20 -18 -45 -36 -25 -18 -45 -30 -45 -27 0 4 81 66 87 66 2 0 3
-1 3 -3z"/>
<path d="M2015 1580 c-3 -6 1 -7 9 -4 18 7 21 14 7 14 -6 0 -13 -4 -16 -10z"/>
<path d="M1263 2015 c0 -22 2 -30 4 -17 2 12 2 30 0 40 -3 9 -5 -1 -4 -23z"/>
<path d="M675 1870 c16 -28 97 -140 102 -140 3 0 -17 30 -43 68 -48 68 -74
101 -59 72z"/>
<path d="M1288 1683 c6 -3 12 -11 12 -19 0 -8 8 -14 18 -13 11 0 12 2 4 6 -8
3 -10 9 -3 16 7 9 2 12 -17 13 -15 1 -21 -1 -14 -3z"/>
<path d="M1360 1670 c14 -10 27 -16 30 -13 6 6 -30 33 -44 33 -6 0 0 -9 14
-20z"/>
<path d="M696 1584 c-3 -9 -6 -29 -6 -45 l0 -29 275 0 275 0 0 45 0 45 -269 0
c-236 0 -270 -2 -275 -16z"/>
<path d="M1296 1569 c-12 -63 -27 -59 229 -59 l235 0 0 45 0 45 -229 0 -228 0
-7 -31z"/>
<path d="M2050 1535 c-28 -16 -19 -20 11 -5 10 6 19 8 19 6 0 -11 -63 -37 -76
-32 -9 4 -12 2 -8 -5 4 -8 -1 -9 -17 -4 -19 5 -21 4 -9 -4 13 -9 12 -11 -5
-12 -11 -1 -26 -2 -32 -2 -7 1 -10 -3 -7 -8 3 -5 0 -9 -7 -9 -7 0 -10 -2 -7
-5 3 -3 43 8 88 25 46 16 86 28 88 25 3 -2 -6 -8 -18 -13 -23 -9 -23 -9 8 -20
36 -12 36 -13 20 39 -13 44 -13 44 -48 24z"/>
<path d="M687 1483 c-4 -3 -7 -26 -7 -50 l0 -43 42 0 c40 0 47 -5 175 -132 73
-73 133 -140 133 -150 0 -15 -9 -18 -54 -18 -52 0 -54 -1 -60 -31 -14 -73 -22
-69 144 -69 l150 0 0 73 0 72 -178 178 -177 177 -81 0 c-44 0 -84 -3 -87 -7z"/>
<path d="M910 1482 c0 -4 72 -79 160 -167 l160 -160 62 60 c215 206 274 265
270 270 -3 3 -65 5 -138 5 -145 0 -144 1 -144 -66 0 -32 2 -34 32 -34 l33 0
-48 -47 -47 -48 -47 48 -48 47 32 0 c34 0 43 13 43 66 l0 34 -160 0 c-88 0
-160 -3 -160 -8z"/>
<path d="M1427 1313 l-188 -177 3 -70 3 -71 138 -3 137 -3 0 51 0 50 -65 0
c-53 0 -65 3 -65 16 0 9 61 76 136 148 122 116 141 132 178 136 39 5 41 7 47
45 4 22 5 43 2 48 -2 4 -34 7 -71 7 l-67 -1 -188 -176z"/>
<path d="M1935 1445 c-49 -18 -93 -31 -97 -28 -5 2 -8 -1 -8 -7 0 -9 26 -7 67
5 7 2 15 0 18 -6 4 -5 3 -8 -2 -7 -5 2 -21 -7 -37 -19 -16 -13 -24 -23 -18
-23 6 0 14 5 17 11 5 7 12 6 23 -4 10 -8 42 -18 72 -23 46 -6 51 -9 30 -15
-40 -11 -99 -10 -119 3 -15 9 -24 8 -45 -5 -14 -9 -32 -17 -41 -17 -9 0 -13
-4 -10 -10 3 -6 -5 -10 -19 -10 -13 0 -26 -5 -28 -12 -3 -9 -6 -9 -12 0 -4 8
1 15 14 20 l21 8 -20 19 c-12 10 -24 15 -28 11 -4 -4 -1 -11 7 -16 11 -7 11
-11 1 -24 -11 -12 -17 -14 -27 -5 -11 9 -14 8 -14 -5 0 -13 -6 -15 -26 -10
l-27 7 26 -29 c14 -16 35 -40 46 -54 11 -14 20 -20 21 -14 0 6 -11 21 -25 34
-28 27 -32 40 -10 40 8 0 15 -6 15 -13 0 -8 11 -20 25 -27 18 -10 22 -16 13
-22 -10 -5 -8 -8 5 -8 9 0 17 -4 17 -10 0 -5 8 -10 18 -10 14 0 15 -2 2 -10
-13 -8 -13 -10 2 -10 9 0 20 -4 23 -10 10 -16 -7 -12 -45 12 -37 23 -70 30
-70 16 0 -5 -4 -6 -10 -3 -5 3 -10 2 -10 -4 0 -5 5 -13 10 -16 6 -3 10 -1 10
4 0 17 14 13 53 -13 19 -13 38 -22 41 -19 3 3 12 1 19 -5 8 -7 16 -10 18 -9 2
2 12 -5 22 -16 19 -19 18 -19 -4 -12 -46 15 -3 -20 106 -85 58 -34 109 -69
114 -77 7 -13 9 -12 13 5 5 16 -3 24 -34 38 -21 10 -41 22 -45 26 -3 5 13 0
36 -11 22 -12 44 -21 49 -21 16 0 48 133 34 138 -7 2 -12 10 -12 17 0 7 -6 16
-12 18 -10 4 -10 6 0 6 7 1 17 13 22 27 6 15 14 22 22 18 11 -7 7 119 -8 227
-6 47 -14 53 -89 75 -5 1 -50 -12 -100 -31z m139 6 c9 -14 -24 -22 -42 -11
-14 9 -12 10 7 4 16 -4 21 -3 17 5 -4 6 -3 11 3 11 5 0 12 -4 15 -9z m-72 -18
c-6 -2 -9 -9 -6 -14 3 -6 -6 -7 -23 -4 -21 5 -24 4 -13 -4 18 -13 1 -14 -20
-1 -13 8 -13 9 0 14 8 2 22 7 30 9 20 7 49 7 32 0z m-192 -258 c0 -9 9 -15 21
-15 17 0 19 -3 10 -13 -6 -8 -7 -18 -3 -22 4 -5 1 -5 -6 -1 -7 4 -10 12 -7 17
4 5 2 9 -4 9 -6 0 -15 9 -21 20 -7 14 -7 20 0 20 5 0 10 -7 10 -15z m53 -2
c-7 -2 -21 -2 -30 0 -10 3 -4 5 12 5 17 0 24 -2 18 -5z m97 -17 c0 -3 -4 -8
-10 -11 -5 -3 -10 -1 -10 4 0 6 5 11 10 11 6 0 10 -2 10 -4z m53 -13 c-7 -2
-21 -2 -30 0 -10 3 -4 5 12 5 17 0 24 -2 18 -5z m37 -7 c0 -3 -4 -8 -10 -11
-5 -3 -10 -1 -10 4 0 6 5 11 10 11 6 0 10 -2 10 -4z m-126 -20 c-10 -8 -21
-12 -24 -10 -5 6 21 24 34 24 6 0 1 -6 -10 -14z m-24 -56 c8 -5 11 -10 5 -10
-5 0 -17 5 -25 10 -8 5 -10 10 -5 10 6 0 17 -5 25 -10z"/>
<path d="M1566 1214 l-30 -26 51 7 c33 4 59 2 73 -5 29 -15 35 -8 13 18 -29
34 -73 36 -107 6z m72 -1 c-10 -2 -28 -2 -40 0 -13 2 -5 4 17 4 22 1 32 -1 23
-4z"/>
<path d="M835 1220 c-3 -5 -3 -14 0 -20 3 -6 -4 -10 -18 -10 -14 0 -24 -6 -24
-14 0 -8 6 -12 14 -9 7 3 21 2 31 -2 9 -4 32 -8 49 -10 27 -1 31 1 22 12 -6 7
-20 13 -30 13 -21 0 -34 17 -18 22 7 2 6 8 -4 16 -10 9 -17 10 -22 2z"/>
<path d="M1515 1172 c-16 -17 -2 -32 30 -32 31 0 35 -3 35 -25 0 -14 7 -28 15
-31 8 -4 15 -16 15 -28 0 -14 3 -17 8 -9 6 9 17 6 44 -12 42 -28 56 -32 38
-10 -7 8 -18 15 -25 15 -18 0 -75 70 -75 91 0 9 -6 21 -12 26 -15 12 -65 22
-73 15z"/>
<path d="M1635 1160 c3 -5 11 -10 16 -10 6 0 7 5 4 10 -3 6 -11 10 -16 10 -6
0 -7 -4 -4 -10z"/>
<path d="M675 1114 c-61 -34 -81 -41 -70 -25 3 5 1 12 -4 16 -6 3 -8 -3 -6
-15 2 -12 -3 -24 -15 -30 -25 -13 -27 -13 -27 5 0 9 6 14 12 11 6 -2 12 2 12
10 0 9 -5 10 -16 4 -9 -5 -16 -18 -16 -29 0 -13 -20 -33 -62 -60 -35 -22 -63
-37 -63 -32 0 5 20 21 45 35 45 27 59 41 28 29 -12 -5 -14 -3 -8 8 5 8 5 11
-1 6 -5 -5 -9 -14 -9 -19 0 -6 -6 -13 -14 -16 -9 -3 -11 0 -6 8 4 7 -5 5 -24
-4 -17 -9 -31 -18 -31 -19 0 -2 7 -24 16 -50 15 -46 31 -62 31 -32 0 8 -4 12
-9 9 -4 -3 -8 -3 -8 -1 0 4 25 21 230 162 103 71 110 84 15 29z m-241 -118
c-10 -8 -21 -12 -24 -10 -5 6 21 24 34 24 6 0 1 -6 -10 -14z"/>
<path d="M1660 1131 c0 -5 7 -11 15 -15 8 -3 15 -1 15 3 0 5 -7 11 -15 15 -8
3 -15 1 -15 -3z"/>
<path d="M2122 1120 c0 -14 2 -19 5 -12 2 6 2 18 0 25 -3 6 -5 1 -5 -13z"/>
<path d="M686 1053 c-6 -14 -5 -15 5 -6 7 7 10 15 7 18 -3 3 -9 -2 -12 -12z"/>
<path d="M830 1059 c-14 -4 -37 -11 -52 -14 -15 -3 -55 -27 -90 -53 -35 -27
-67 -49 -71 -49 -5 -1 -42 -24 -83 -51 l-74 -51 50 -74 c45 -67 183 -217 200
-217 4 0 20 -10 36 -22 15 -13 33 -23 39 -23 18 -1 95 -45 95 -55 0 -6 11 -8
25 -4 15 4 25 2 25 -5 0 -6 5 -11 11 -11 6 0 18 -7 26 -16 12 -11 18 -12 23
-4 5 8 9 9 11 2 10 -26 317 -57 377 -38 21 7 23 12 17 49 -4 23 -9 51 -11 62
-4 16 -3 17 4 5 5 -8 13 -36 16 -63 4 -26 11 -47 15 -47 13 0 105 31 148 51
24 10 49 19 56 19 17 0 39 25 60 68 18 37 17 38 -24 16 -17 -8 -33 -14 -35
-11 -2 2 2 19 10 38 36 86 27 140 -32 194 -88 79 -85 77 -167 70 l-74 -7 5
-32 c13 -79 13 -78 47 -74 18 3 40 9 51 13 16 7 17 6 7 -13 -14 -27 -14 -77 0
-104 10 -19 9 -20 -17 -13 -58 16 -69 12 -75 -25 -6 -32 -6 -33 -8 -6 -1 22
-5 27 -19 24 -17 -5 -18 -3 -6 33 19 53 -4 106 -48 113 -23 3 -39 17 -48 42
-7 16 -17 24 -34 24 -13 0 -26 4 -28 8 -1 5 -69 12 -150 15 l-146 6 -46 -72
c-25 -39 -46 -67 -46 -62 0 6 18 37 40 70 31 46 36 61 25 63 -11 3 -15 18 -16
55 -1 29 -1 55 -1 58 8 65 13 129 11 128 -2 -1 -15 -5 -29 -10z m-88 -154 c-2
-14 -5 -25 -7 -25 -1 0 -17 5 -35 12 -31 10 -32 12 -15 25 11 7 29 13 41 13
17 0 20 -5 16 -25z m-202 -48 c0 -2 -12 -14 -27 -28 l-28 -24 24 28 c23 25 31
32 31 24z m755 -198 c4 -22 5 -90 2 -152 -2 -66 -1 -89 3 -57 l7 55 1 -68 c2
-51 -1 -68 -10 -65 -13 4 -19 58 -31 259 -4 62 -2 77 8 73 8 -3 17 -23 20 -45z
m-520 -6 c-10 -14 -27 -41 -38 -60 -11 -19 -21 -32 -24 -29 -5 4 67 116 75
116 2 0 -4 -12 -13 -27z m642 -190 c-3 -10 -5 -2 -5 17 0 19 2 27 5 18 2 -10
2 -26 0 -35z m10 -60 c-3 -10 -5 -4 -5 12 0 17 2 24 5 18 2 -7 2 -21 0 -30z"/>
<path d="M1283 600 c0 -25 2 -35 4 -22 2 12 2 32 0 45 -2 12 -4 2 -4 -23z"/>
<path d="M1281 534 c0 -11 3 -14 6 -6 3 7 2 16 -1 19 -3 4 -6 -2 -5 -13z"/>
<path d="M1576 1043 c-11 -12 -6 -36 12 -56 16 -19 16 -20 0 -14 -15 5 -18 0
-20 -26 -1 -18 -2 -41 -3 -52 -1 -11 -4 -25 -8 -31 -3 -6 22 -34 58 -63 68
-55 115 -71 171 -57 l27 7 -39 40 c-48 49 -33 52 17 3 31 -31 40 -34 57 -25
30 16 33 14 20 -14 -9 -21 -8 -28 7 -45 10 -11 24 -20 31 -20 8 0 11 -7 7 -17
-3 -10 12 4 34 32 37 45 39 50 23 60 -75 43 -178 110 -176 113 6 6 87 -38 139
-74 26 -19 51 -34 55 -34 5 0 18 18 31 40 14 26 18 40 10 40 -7 0 -46 22 -88
49 -74 47 -131 79 -121 68 3 -3 48 -33 100 -67 110 -72 105 -68 98 -76 -4 -3
-17 2 -30 10 -14 9 -28 13 -33 9 -4 -5 -5 -2 -1 5 6 9 2 12 -10 10 -11 -2 -18
2 -17 10 3 11 -1 13 -37 16 -8 1 -14 8 -12 16 2 8 1 12 -3 8 -4 -3 -27 9 -52
28 -52 40 -79 41 -76 4 1 -23 -2 -25 -42 -25 -43 0 -43 0 -38 32 3 19 0 39 -6
47 -18 21 -78 55 -85 49z"/>
<path d="M680 1022 c0 -13 -58 -43 -77 -40 -10 2 -17 -2 -15 -9 1 -7 -2 -13
-8 -13 -5 0 -12 0 -14 -1 -3 0 -21 -16 -41 -35 -20 -19 -40 -32 -45 -29 -15 9
-39 -6 -33 -21 8 -22 22 -17 95 36 38 28 74 47 80 44 6 -4 8 -3 4 4 -3 5 10
20 29 32 30 19 46 40 30 40 -3 0 -5 -4 -5 -8z"/>
<path d="M906 939 c-12 -63 -33 -59 293 -59 165 0 302 3 304 8 2 4 7 24 11 45
l7 37 -304 0 -304 0 -7 -31z"/>
<path d="M505 924 l-30 -26 33 22 c17 12 32 23 32 26 0 7 -4 5 -35 -22z"/>
<path d="M1930 946 c0 -2 24 -19 53 -36 28 -18 55 -37 58 -42 3 -5 9 -2 13 8
4 10 4 15 0 11 -4 -4 -12 -3 -18 1 -22 17 -106 63 -106 58z"/>
<path d="M463 925 c0 -8 4 -12 9 -9 5 3 6 10 3 15 -9 13 -12 11 -12 -6z"/>
<path d="M1288 794 c2 -14 12 -28 21 -32 9 -3 19 -10 23 -16 4 -6 8 -1 8 12 0
13 -4 21 -9 18 -4 -3 -6 6 -3 19 4 21 1 25 -20 25 -22 0 -25 -4 -20 -26z"/>
<path d="M1351 744 c0 -11 3 -14 6 -6 3 7 2 16 -1 19 -3 4 -6 -2 -5 -13z"/>
<path d="M1845 700 c-9 -27 -3 -32 24 -22 22 8 22 8 2 26 -18 17 -19 17 -26
-4z"/>
<path d="M1841 614 c0 -11 3 -14 6 -6 3 7 2 16 -1 19 -3 4 -6 -2 -5 -13z"/>
<path d="M1850 587 c0 -4 7 -22 16 -39 15 -28 15 -30 0 -24 -41 16 -48 15 -16
-3 42 -23 48 -15 21 36 -11 21 -20 34 -21 30z"/>
<path d="M1728 553 c12 -2 30 -2 40 0 9 3 -1 5 -23 4 -22 0 -30 -2 -17 -4z"/>
</g>
</svg>
